<?xml version="1.0" encoding="UTF-8"?>
<svg width="752pt" height="752pt" version="1.1" viewBox="0 0 752 752" xmlns="http://www.w3.org/2000/svg">
 <defs>
  <clipPath id="b">
   <path d="m139.21 260h75.789v113h-75.789z"/>
  </clipPath>
  <clipPath id="a">
   <path d="m537 260h75.793v113h-75.793z"/>
  </clipPath>
 </defs>
 <path d="m352.11 337.73c-0.74219 0.75-1.7539 1.1758-2.8086 1.1758-13.832 0-25.711-1.3008-35.742-3.9219-1.9766 15.391 0.39844 33.098 4.207 39.359 3.457 5.6836 9.7578 8.1758 16.43 10.816 4.4766 1.7695 9.1016 3.6016 13.207 6.4961 3.2891 2.3203 6.0781 5.1484 8.7773 7.8906 3.3789-4.4141 9.8125-10.426 19.824-10.426s16.445 6.0078 19.824 10.426c2.6953-2.7422 5.4883-5.5703 8.7773-7.8906 4.1055-2.8984 8.7344-4.7266 13.207-6.4961 6.6719-2.6406 12.973-5.1328 16.43-10.816 3.8086-6.2656 6.1797-23.969 4.207-39.359-10.031 2.6211-21.91 3.9219-35.742 3.9219-1.0547 0-2.0664-0.42188-2.8086-1.1758-0.74219-0.75-1.1523-1.7695-1.1367-2.8242 0.16797-12.918 1.8398-24.328 4.9922-34.156-8.957-2.5781-18.668-3.9805-27.75-3.9805s-18.793 1.4023-27.75 3.9805c3.1523 9.832 4.8242 21.238 4.9922 34.156 0.015624 1.0586-0.39453 2.0742-1.1367 2.8242zm-7.6758 40.645c-4.3594 0-7.8945-3.5352-7.8945-7.8945s3.5352-7.8945 7.8945-7.8945c4.3594 0 7.8945 3.5352 7.8945 7.8945s-3.5352 7.8945-7.8945 7.8945zm63.145-15.785c4.3594 0 7.8945 3.5352 7.8945 7.8945s-3.5352 7.8945-7.8945 7.8945-7.8945-3.5352-7.8945-7.8945c0-4.3633 3.5352-7.8945 7.8945-7.8945z"/>
 <path d="m217.85 244.89c1.832-2.582 4.5898-4.3281 7.7617-4.8594 3.6445-0.60938 7.293 0.46875 10.02 2.9609 6.9492 6.3438 16.223 15.547 20.938 23.34 2.7266 4.5078 4.4844 11.953 6.5195 20.582 2.6758 11.328 6.0039 25.43 11.879 30.754 3.6602 3.3164 9.625 5.4766 15.742 6.8555-3.1055-2.332-5.8359-4.9492-8.1992-7.8594-8.4062-10.363-12.059-24.18-11.082-41.922-7.8047-12.949-29.285-43.621-44.504-45.434-18.773-2.2461-60.684 33.734-71.773 51.02-5.5742 8.6836-10.184 21.066-13.562 32.043 21.984-31.93 47.102-54.121 76.262-67.48z"/>
 <path d="m444.3 293.16c5.3242 0.78516 9.4609 3.2578 12.293 7.3555 2.957 4.2773 3.8828 9.6289 4.0156 14.168 0.97266-0.96094 1.9062-1.9492 2.7539-3 8.8438-10.902 11.484-26.793 8.0352-48.508-21.316 0.66797-37.461 6.8125-48.016 18.285-8.1953 8.9102-13.41 21.445-15.582 37.379 8.5039-12.398 22.164-27.801 36.5-25.68z"/>
 <path d="m291.39 314.69c0.13281-4.5391 1.0547-9.8867 4.0156-14.168 2.832-4.0938 6.9688-6.5703 12.293-7.3555 14.348-2.1289 28 13.27 36.5 25.668-2.1797-15.926-7.3906-28.457-15.586-37.367-10.555-11.473-26.695-17.613-48.016-18.285-3.4453 21.715-0.80859 37.605 8.0352 48.508 0.85156 1.0508 1.7852 2.0391 2.7578 3z"/>
 <path d="m450.09 304.99c-1.5586-2.2461-3.8281-3.5625-6.9414-4.0195-12.031-1.7773-26.266 17.5-33.66 29.914 18.5-0.63281 32.699-3.9062 42.895-9.9219 0.5625-3.9805 0.83203-11.465-2.293-15.973z"/>
 <g clip-path="url(#b)">
  <path d="m205.74 339c-6.5859-11-14.785-24.691-14.785-40.816 0-13.582 7.5-27.617 14.57-37.828-25.109 15.273-46.965 38.414-66.312 70.191 9.7188-1.2539 26.082-1.4141 43.492 6.9062 17.129 8.1836 26.102 23.891 30.496 34.863 1.25-5.2383 2.0117-11.559 0.61719-17.172-1.1328-4.5469-4.3516-9.9219-8.0781-16.145z"/>
 </g>
 <path d="m255.41 288.72c-1.8047-7.6445-3.5078-14.867-5.5898-18.309-4.2266-6.9844-12.938-15.598-19.504-21.594-0.92578-0.84375-2.1641-1.2109-3.3984-1.0039-1.2344 0.20703-2.2891 0.95703-2.8906 2.0586-0.87109 1.5977-0.57031 3.5938 0.73437 4.8477 6.1562 5.9141 14.223 14.527 17.699 21.984 1.9648 4.2188 3.6914 11.094 5.6914 19.055 3.1992 12.746 7.1836 28.605 12.727 34.27 3.8477 3.9297 8.7109 6.1875 13.863 8.5742 6.9648 3.2305 14.168 6.5742 18.543 14.262 1.4375 2.5234 3.0352 7.832 5.9727 17.777 4.7188 15.984 11.852 40.141 22.359 61.992 15.816 32.902 34.117 49.586 54.387 49.586s38.57-16.684 54.387-49.586c10.508-21.852 17.641-46.008 22.359-61.992 2.9375-9.9453 4.5352-15.254 5.9727-17.777 4.3711-7.6875 11.574-11.031 18.543-14.262 5.1484-2.3906 10.016-4.6484 13.863-8.5742 5.543-5.6641 9.5273-21.523 12.727-34.27 2-7.9609 3.7266-14.836 5.6914-19.055 3.4766-7.457 11.543-16.07 17.699-21.984 1.3047-1.2539 1.6055-3.2461 0.73437-4.8477-0.60156-1.1016-1.6523-1.8516-2.8906-2.0586-1.2344-0.20703-2.4727 0.16016-3.3984 1.0039-6.5664 5.9961-15.281 14.609-19.504 21.594-2.082 3.4414-3.7852 10.664-5.5898 18.309-3.0781 13.039-6.5664 27.816-14.258 34.789-9.3398 8.4648-27.504 10.512-36 10.992 1.9492 16.152-0.27344 35.602-5.3516 43.945-4.832 7.9492-12.684 11.051-20.27 14.055-4.2305 1.6719-8.2266 3.2539-11.562 5.6094-2.7422 1.9375-5.1953 4.4258-7.7852 7.0625-6.1484 6.2539-13.121 13.344-25.367 13.344s-19.215-7.0898-25.367-13.344c-2.5938-2.6367-5.043-5.1289-7.7852-7.0625-3.3359-2.3555-7.332-3.9336-11.562-5.6094-7.5859-3.0039-15.438-6.1055-20.27-14.055-5.0742-8.3477-7.3008-27.809-5.3477-43.965-8.4961-0.48438-26.66-2.5078-36.004-10.973-7.6914-6.9727-11.18-21.75-14.258-34.789z"/>
 <path d="m469.49 316.66c-2.3594 2.9062-5.0859 5.5195-8.1836 7.8477 6.1172-1.3789 12.078-3.5391 15.727-6.8477 5.875-5.3242 9.2031-19.426 11.879-30.754 2.0352-8.625 3.793-16.074 6.5195-20.582 4.7148-7.793 13.988-16.992 20.938-23.34 2.7266-2.4883 6.3789-3.5703 10.02-2.9609 3.1719 0.53125 5.9336 2.2773 7.7656 4.8594 29.164 13.359 54.277 35.551 76.262 67.477-3.3828-10.973-7.9883-23.359-13.562-32.043-11.094-17.285-53.062-53.234-71.773-51.02-15.219 1.8125-36.699 32.488-44.504 45.438 0.97656 17.746-2.6758 31.562-11.086 41.926z"/>
 <path d="m390.09 405.05c-2.1758-3.0938-6.7891-8.0273-14.094-8.0273-7.3008 0-11.91 4.9297-14.094 8.0273 3.8789 3.2852 8.1016 5.5742 14.094 5.5742s10.215-2.293 14.094-5.5742z"/>
 <path d="m308.85 300.97c-3.1172 0.46094-5.3906 1.7812-6.9492 4.0352-3.1367 4.5391-2.8594 11.988-2.2891 15.949 10.195 6.0195 24.395 9.2969 42.898 9.9258-7.3984-12.41-21.637-31.68-33.66-29.91z"/>
 <path d="m365.95 488.96c0.6875 11.219 4.0547 22.559 10.051 33.844 5.9961-11.285 9.3633-22.625 10.051-33.844-3.2891 0.76172-6.6367 1.1562-10.051 1.1562-3.4141-0.003906-6.7617-0.39453-10.051-1.1562z"/>
 <path d="m408.71 476.88c-4.7227 4.0859-9.6094 7.2266-14.656 9.4219-0.16016 7.7305-1.4805 15.492-3.9219 23.242 5.6602-4.5195 12.492-8.5781 20.184-10.492 6.3164-1.5703 12.855-1.7539 18.996-1.2227-3.3945-8.8867-10.184-15.789-20.602-20.949z"/>
 <path d="m467.13 401.87c2.3828-9.3711 11.887-21.781 22.887-36.148 10.141-13.242 21.637-28.25 28.016-41.961 9.2383-19.848 9.4062-44.613 8.7266-57.309-4.8828 5.2695-8.375 9.9648-10.062 13.586-1.6484 3.5352-3.3711 10.387-5.1914 17.645-3.6094 14.379-7.7031 30.68-14.742 37.867-4.8555 4.957-10.613 7.6289-16.18 10.215-6.375 2.957-11.879 5.5117-15.004 11.004-1.0508 1.8516-3.0039 8.457-5.2617 16.109-4.793 16.227-12.031 40.75-22.816 63.176-3.6406 7.5703-7.4336 14.344-11.375 20.332 3.9492 2.3672 7.6172 5.1172 10.973 8.2461 0.58203-6.9727 3-15.754 10.52-22.348 8.2695-7.2539 17.691-8.4453 24.301-8.1211-3.5586-7.6914-7.8281-20.332-4.7891-32.293z"/>
 <path d="m421.58 462.85c-2.2539 2.9961-4.5469 5.7539-6.8906 8.2578 12.23 6.7148 20.07 16.086 23.336 27.953 4.8672 0.94922 9.2031 2.207 12.586 3.3438-2.9844-9.6445-7.0938-17.918-12.25-24.664-4.6523-6.0859-10.289-11.082-16.781-14.891z"/>
 <path d="m530.53 353.25c1.4141-5.6914 4.9141-11.535 8.9609-18.297 6.4062-10.695 13.664-22.82 13.664-36.762 0-14.855-11.156-31.246-18.43-40.352-0.19531 0.33203-0.40234 0.66016-0.62891 0.97656 0.875 8.0664 3.5312 41.566-8.9062 68.281-6.7461 14.492-18.52 29.867-28.906 43.43-10.039 13.109-19.52 25.492-21.504 33.293-1.9258 7.5703-0.046875 15.844 2.3281 22.254 2.6836-13.121 8.8711-32.703 22.637-41.559 12.941-8.3281 24.879-7.8672 32.539-6.0625-2.0352-6.6914-3.9453-16.391-1.7539-25.203z"/>
 <g clip-path="url(#a)">
  <path d="m546.48 260.36c7.0664 10.215 14.57 24.246 14.57 37.828 0 16.125-8.1992 29.816-14.785 40.816-3.7266 6.2227-6.9453 11.594-8.0742 16.145-1.3984 5.6367-0.63672 11.957 0.60938 17.188 4.3867-10.973 13.363-26.691 30.5-34.883 17.41-8.3203 33.773-8.1602 43.492-6.9062-19.352-31.773-41.203-54.914-66.312-70.188z"/>
 </g>
 <path d="m314.9 464.63c3.3555-3.1289 7.0273-5.8789 10.973-8.2461-3.9414-5.9922-7.7344-12.762-11.375-20.332-10.781-22.426-18.023-46.949-22.816-63.176-2.2617-7.6523-4.2109-14.262-5.2617-16.109-3.125-5.4922-8.6289-8.0469-15.004-11.004-5.5664-2.582-11.324-5.2539-16.18-10.215-7.043-7.1914-11.133-23.488-14.746-37.867-1.8203-7.2539-3.543-14.105-5.1914-17.641-1.6875-3.6211-5.1836-8.3164-10.066-13.586-0.67969 12.695-0.51562 37.461 8.7266 57.309 6.3828 13.711 17.875 28.719 28.016 41.961 11.004 14.367 20.508 26.777 22.887 36.148 3.0391 11.961-1.2305 24.602-4.7891 32.289 6.6094-0.32422 16.031 0.86719 24.301 8.1211 7.5273 6.5938 9.9492 15.371 10.527 22.348z"/>
 <path d="m337.31 471.11c-2.3398-2.5039-4.6367-5.2617-6.8906-8.2578-6.4922 3.8086-12.129 8.8047-16.781 14.895-5.1562 6.7461-9.2617 15.02-12.25 24.664 3.3867-1.1406 7.7188-2.3945 12.586-3.3438 3.2656-11.871 11.105-21.242 23.336-27.957z"/>
 <path d="m255.72 370.52c-10.387-13.562-22.16-28.938-28.906-43.43-12.438-26.715-9.7812-60.215-8.9062-68.281-0.23047-0.31641-0.4375-0.64062-0.62891-0.97656-7.2695 9.1055-18.43 25.5-18.43 40.352 0 13.941 7.2578 26.066 13.664 36.762 4.0508 6.7617 7.5469 12.605 8.9609 18.297 2.1875 8.8164 0.27734 18.512-1.7578 25.203 7.6562-1.8047 19.594-2.2656 32.539 6.0625 13.766 8.8555 19.953 28.438 22.637 41.559 2.375-6.4102 4.2539-14.684 2.3281-22.254-1.9805-7.8008-11.461-20.184-21.5-33.293z"/>
 <path d="m343.29 476.88c-10.418 5.1602-17.207 12.062-20.602 20.949 6.1406-0.53516 12.68-0.34766 18.996 1.2227 7.6914 1.9141 14.523 5.9727 20.184 10.492-2.4414-7.75-3.7617-15.512-3.9219-23.242-5.0469-2.1953-9.9336-5.3359-14.656-9.4219z"/>
</svg>
