<?xml version="1.0" encoding="UTF-8"?>
<svg width="752pt" height="752pt" version="1.1" viewBox="0 0 752 752" xmlns="http://www.w3.org/2000/svg">
 <path d="m160.54 580.08c-12.801 1.4219-14.223-5.6875 1.4219-9.957 31.289-8.5312 56.887-15.645 85.328-42.664 24.176-46.93 19.91-98.129 29.867-150.75 19.91-52.621 72.531-82.484 120.88-99.551 28.441 1.4219 38.398 8.5312 63.996 15.645 5.6875 1.4219 22.754-4.2656 28.441-15.645 7.1094-15.645-5.6875-42.664 11.379-51.199-9.957 0-21.332-5.6875-19.91-11.379 2.8438-22.754-8.5312-48.355-1.4219-48.355 11.379 1.4219 21.332 19.91 22.754 35.555 0-12.801-1.4219-24.176 1.4219-32.711 2.8438-7.1094 8.5312-7.1094 11.379 1.4219 2.8438 9.957 24.176 21.332 28.441 35.555 11.379 1.4219 19.91 1.4219 25.598 7.1094 2.8438 2.8438 2.8438 7.1094 4.2656 15.645 7.1094 5.6875 17.066 11.379 22.754 18.488 5.6875 7.1094 4.2656 19.91 2.8438 21.332-5.6875 7.1094-21.332 9.957-32.711 1.4219-8.5312 5.6875-19.91 9.957-36.977 1.4219 7.1094 5.6875 9.957 5.6875 14.223 11.379-9.957 34.133 1.4219 52.621-4.2656 61.152-15.645 9.957-27.02 19.91-21.332 32.711 11.379 8.5312 15.645 14.223 24.176 35.555 4.2656 7.1094 9.957 9.957 14.223 18.488-1.4219 9.957 2.8438 15.645 2.8438 22.754 0 9.957-2.8438 29.867-7.1094 27.02-2.8438 0 1.4219-18.488 0-18.488-2.8438-1.4219-5.6875 24.176-9.957 24.176-4.2656-1.4219 2.8438-24.176 1.4219-24.176s-7.1094 19.91-9.957 19.91c-7.1094-1.4219 9.957-35.555 5.6875-51.199-14.223-12.801-22.754-14.223-36.977-35.555-5.6875 1.4219-5.6875 2.8438-4.2656 8.5312 27.02 14.223 34.133 34.133 31.289 48.355-1.4219 7.1094-5.6875 7.1094-12.801 9.957-7.1094 1.4219-4.2656 8.5312-14.223 9.957-7.1094 1.4219-15.645-2.8438-15.645-4.2656-1.4219-2.8438 14.223 0 14.223-1.4219 0-1.4219-19.91-1.4219-19.91-7.1094 0-1.4219 15.645 2.8438 15.645 1.4219 0-2.8438-12.801-2.8438-15.645-5.6875 0 0 0-4.2656 4.2656-2.8438 11.379 2.8438 24.176 4.2656 25.598-8.5312 0-19.91-21.332-27.02-38.398-24.176-5.6875 0-11.379 5.6875-21.332 8.5312-1.4219 8.5312-15.645 32.711-22.754 34.133-5.6875 1.4219-9.957 0-17.066-8.5312 2.8438 8.5312 5.6875 14.223 12.801 17.066 15.645 2.8438 21.332-22.754 22.754-19.91 14.223 8.5312 5.6875 18.488-7.1094 27.02 1.4219 11.379-11.379 25.598-19.91 38.398 35.555-1.4219 55.465-1.4219 73.953 0 17.066 1.4219 29.867 8.5312 31.289 14.223 0 2.8438-9.957 2.8438-5.6875 4.2656 12.801 5.6875 19.91 8.5312 18.488 21.332-46.93-22.754-71.109-27.02-145.06-15.645-11.379 1.4219-12.801 0-8.5312-9.957 2.8438-7.1094 4.2656-9.957 7.1094-14.223-15.645 8.5312-22.754 25.598-27.02 42.664 55.465-18.488 103.82-22.754 137.95-8.5312 8.5312 1.4219 17.066 11.379 2.8438 9.957-4.2656 0-2.8438 1.4219 12.801 5.6875 7.1094 1.4219 11.379 11.379 8.5312 15.645-46.93-17.066-61.152-31.289-179.19 5.6875-15.645 4.2656-19.91-1.4219-17.066-11.379 4.2656-25.598 5.6875-21.332 14.223-46.93-4.2656-11.379-8.5312-22.754-8.5312-38.398 0-5.6875-12.801 7.1094-17.066 17.066-9.957 42.664-31.289 69.688-159.28 72.531zm389.67-351.27c1.4219 0 2.8438 1.4219 2.8438 2.8438s-1.4219 2.8438-2.8438 2.8438-2.8438-1.4219-2.8438-2.8438 1.4219-2.8438 2.8438-2.8438zm38.398 25.598c2.8438 0 8.5312 4.2656 8.5312 5.6875s-4.2656 2.8438-5.6875 2.8438-2.8438-7.1094-2.8438-8.5312zm-48.355-24.176s5.6875-4.2656 11.379-2.8438c4.2656 1.4219 8.5312 5.6875 8.5312 7.1094 0 0-4.2656 1.4219-8.5312 1.4219-5.6875 0-8.5312-4.2656-11.379-5.6875zm-187.73 164.97c-2.8438 2.8438-5.6875-2.8438-2.8438-4.2656 28.441-18.488 68.266-29.867 71.109 15.645 1.4219 19.91-7.1094 49.777-25.598 81.062-1.4219 4.2656-7.1094 1.4219-4.2656-2.8438 17.066-29.867 25.598-58.309 24.176-78.219-2.8438-39.82-38.398-27.02-62.574-11.379z" fill-rule="evenodd"/>
</svg>
