<?xml version="1.0" encoding="UTF-8"?>
<svg width="752pt" height="752pt" version="1.1" viewBox="0 0 752 752" xmlns="http://www.w3.org/2000/svg">
 <path d="m581.06 322.96c2.3672 0 9.4727 0 11.84-0.47266 0.94531 0 0.94531-1.4219 0-1.4219-2.3672-0.47266-8.9961-0.94531-11.367-0.94531 0.47266-2.8398 0.94531-5.6836 0.94531-8.0508 0.47266-9.4727-0.47266-18.941-2.3672-28.414-1.4219-8.0508-2.8398-15.629-3.7891-23.68-0.94531-4.7344-1.8945-9.4727-3.3164-13.734-4.2617 6.1562-8.9961 12.312-13.262 18.469-0.47266 0.94531-0.94531 1.4219-1.4219 1.8945-1.4219 3.3164-2.8398 6.1562-5.2109 7.5781-11.367-6.6289-25.574-8.5234-37.887-4.2617-0.47266 0-0.94531 0-1.4219 0.47266-0.94531-0.94531-1.4219-1.8945-1.8945-3.3164-2.3672-5.6836-4.2617-11.84-6.1562-17.996-1.8945-3.7891-3.7891-7.5781-5.2109-11.367h-0.47266c-0.47266 1.4219-0.94531 3.3164-1.4219 4.7344-2.3672 6.6289-4.2617 13.262-6.6289 19.891-0.94531 3.7891-1.4219 7.5781-2.3672 11.367-1.4219 5.2109-2.8398 10.891-4.2617 16.102-0.94531 3.3164-1.8945 7.1055-2.3672 10.418 0 0.94531-0.47266 1.8945-0.47266 2.8398-6.6289-3.3164-13.734-5.6836-20.363-6.1562-0.94531 0-1.8945 1.4219-0.94531 2.3672 5.2109 2.8398 11.367 3.7891 16.574 5.6836 1.4219 0.47266 2.8398 0.94531 3.7891 1.8945-0.47266 1.8945-0.47266 3.7891-0.94531 5.6836-1.8945-0.47266-3.7891-0.94531-5.6836-1.4219-4.2617-1.4219-8.0508-3.3164-12.312-2.3672-0.94531 0-1.4219 1.8945 0 1.8945 4.2617 0.94531 8.5234 2.3672 13.262 3.3164 1.4219 0.47266 2.8398 0.47266 4.7344 0.94531 0 1.8945-0.47266 3.7891-0.47266 5.2109-2.8398 0-5.6836-0.47266-8.5234-0.47266-3.3164-0.47266-6.1562-0.47266-9.4727 0.47266-0.47266 0-0.47266 0.94531 0 0.94531 4.2617 0.94531 8.5234 0.94531 12.785 1.4219 1.8945 0 3.3164 0.47266 5.2109 0.47266v0.94531c-0.47266 3.3164-0.47266 7.1055-0.47266 10.418-6.6289 6.1562-14.68 10.891-22.258 15.629-6.1562 0.94531-12.785 0.47266-18.941-0.47266-23.68-2.3672-46.883-9.4727-70.09-13.734-21.785-4.2617-44.516-9.9453-66.301-8.9961-9.9453 0.47266-20.363 1.8945-29.836 5.6836-5.2109 1.8945-10.418 4.7344-15.629 6.6289 0-0.47266-0.47266-0.94531-0.47266-1.4219-1.8945-6.1562-3.3164-11.84-3.3164-17.996v-0.94531-1.4219c-0.47266-4.7344-0.94531-8.9961-0.94531-14.207 0-5.2109-0.94531-10.418 0-15.629 0.94531-9.4727 3.3164-18.941 6.1562-27.469 6.6289-18.469 16.574-35.52 29.363-50.199 12.312-14.207 28.414-26.992 46.883-31.73 5.2109-1.4219 15.156 0 23.207-0.47266 2.3672-0.47266 4.2617-0.94531 6.1562-3.3164 0.46875-1.8867-0.003906-6.625-1.8984-10.414-0.47266-0.47266-1.4219-0.94531-2.3672-0.94531-23.207-7.5781-49.254 3.3164-67.25 17.996-18.469 14.68-34.57 34.57-46.41 55.41-12.312 22.258-19.891 46.41-23.207 71.512-1.8945 13.262-2.8398 26.992-4.2617 40.254-0.94531 7.5781-2.8398 15.629-3.7891 23.68-0.94531 1.4219-1.8945 2.8398-2.8398 4.2617-0.47266 0.47266-0.47266 0.94531-0.94531 1.4219 0 0.47266-0.47266 0.94531-0.47266 1.4219-2.3672 3.3164-4.7344 6.6289-7.1055 9.9453-7.1055 11.367-9.4727 22.258-10.418 35.52-1.4219 16.098-3.3164 32.199-6.6328 48.301-0.94531 4.2617-2.3672 8.5234-3.7891 13.262-3.7852 3.7852-8.0469 8.0469-10.418 13.258-3.7891 9.4727-0.47266 20.363 1.4219 29.363 2.3672 11.367 5.6836 22.258 8.9961 33.625 1.8945 7.1055 4.2617 14.68 11.84 17.523 6.6289 2.3672 15.629 1.8945 22.258 0.47266 2.8398-0.94531 5.2109-3.7891 3.7891-6.6289-1.4219-2.3672-3.7891-4.2617-6.6289-5.6836 0-0.47266-0.47266-0.94531-0.94531-0.94531-2.8398-1.8945-5.2109-3.7891-7.1055-6.1562-0.94531-0.94531-2.3672-2.3672-3.3164-3.3164-1.4219-6.6289-1.8945-13.262-2.8398-20.363-0.94531-8.0508-2.3672-16.102-2.3672-24.152 4.7344-12.785 15.156-23.207 22.73-35.047 2.8398-4.7344 5.6836-9.4727 8.5234-14.207 0.47266 0.47266 0.47266 0.94531 0.94531 1.4219 0 1.8945-0.47266 4.2617-0.47266 5.6836-1.4219 12.785-5.6836 25.102-8.9961 37.414 0 0.47266 0 0.47266-0.47266 0.94531 0 0.47266-0.47266 1.4219-0.47266 1.8945v2.3672 3.7891c0 0.94531 0.47266 1.4219 0.94531 1.8945 0 1.8945 0 3.3164 0.47266 5.2109 0 5.6836 1.4219 11.84 2.8398 17.051 1.4219 4.7344 2.3672 9.4727 4.2617 14.207v1.4219c0.94531 5.6836 2.3672 12.785 6.1562 17.051 8.0508-0.47266 16.102 0 24.152 0 1.8945-0.47266 3.7891-1.4219 6.1562-2.3672 0.47266 0 0.47266-0.47266 0.94531-0.47266h0.47266c0.94531-0.47266 1.8945-0.94531 2.3672-1.8945-0.94531-3.3164-2.3672-6.1562-4.7344-8.5234-0.47266-0.47266-0.47266-0.47266-0.94531-0.94531h-0.47266c-4.2617-1.4219-8.5234-2.3672-11.367-5.6836-0.94531-0.94531-1.4219-1.4219-1.8945-2.3672 0-4.2617-1.4219-8.5234-1.8945-12.785 0.47266-2.3672 0.94531-5.2109 1.4219-7.5781 1.4219-9.4727 1.8945-18.469 5.2109-27.469 0.47266-0.94531 0.47266-1.4219 0.94531-2.3672 0.47266-0.47266 1.4219-0.47266 1.8945-0.94531 8.0508-6.1562 15.156-13.262 21.785-21.312 0.94531-0.94531 1.4219-1.8945 2.3672-2.3672 7.5781 1.8945 15.156 2.3672 22.73 1.8945 13.734-0.47266 27.469-0.94531 41.203-0.47266 13.262 0.47266 26.52 0.94531 39.309 0 14.68 2.3672 29.836 5.2109 44.988 4.2617 4.2617 0 8.9961-0.47266 13.734-0.94531 1.4219 2.8398 2.8398 5.6836 3.7891 8.5234 0.47266 0.94531 0.94531 1.4219 1.4219 2.3672 0.47266 9.9453 3.7891 21.785 5.2109 27.941 1.4219 8.5234 2.8398 17.051 3.3164 25.574 0 6.1562-0.94531 13.262 1.8945 19.418 4.7344 9.9453 17.996 7.5781 26.52 6.6289 0.94531 0 1.8945-0.47266 2.3672-0.94531 0-4.2617 0-8.0508-1.4219-11.367-1.4219-0.94531-3.3164-1.8945-4.7344-2.8398v-17.051-7.5781c0.47266-1.8945 0.94531-3.3164 0.94531-5.2109 1.8945-10.891 3.7891-21.312 5.6836-31.73 0-0.47266 0.47266-0.94531 0.47266-1.8945v0.47266c0 5.2109 1.4219 10.418 2.3672 14.68 0.94531 4.2617 2.3672 8.5234 3.7891 12.785 0.47266 3.3164 1.4219 6.6289 1.8945 9.9453s1.4219 7.1055 1.8945 10.891c0 6.6289-0.47266 13.734 3.7891 18.469 1.8945 2.3672 4.2617 2.8398 6.1562 3.3164h2.3672c0.47266 0 0.47266 0 0.94531 0.47266 1.4219-0.47266 3.3164-0.47266 4.7344-0.47266h0.47266c2.3672-0.47266 4.2617-0.94531 6.6289-0.94531 0.47266-3.3164-0.47266-7.1055-2.3672-9.9453-1.4219-0.47266-2.8398-0.94531-4.2617-0.94531-0.94531-1.8945-0.94531-4.2617-1.4219-6.6289-0.94531-7.1055-1.4219-14.68-1.8945-22.258-0.94531-13.734-0.94531-27.469 0.47266-41.676 1.4219-14.68 3.7891-29.363 10.418-42.621 6.1562-12.785 14.68-24.625 21.785-36.938 7.1055-12.312 13.262-25.102 18.941-37.887 2.8398-6.1562 8.0508-15.629 11.367-21.785 3.3164 1.4219 11.84 2.8398 15.156 2.3672 0.94531 0 1.4219-0.94531 0.47266-1.4219-2.8398-1.8945-10.891-2.8398-13.734-4.2617 1.4219-2.8398 1.4219-2.8398 2.3672-6.1562 3.3164 0.47266 11.367 0.94531 14.68 0.47266 0.47266 0 0.94531-0.94531 0.47266-1.4219-2.8398-1.4219-10.418-1.8945-13.734-2.3672-0.93359-1.4375-0.45703-4.2773 0.015625-6.6445zm-362.29 137.34c0-0.47266 0.47266-1.4219 0.47266-1.8945 0.47266-0.94531 1.4219-1.8945 1.8945-2.8398-0.47266 1.4219-1.4219 2.8438-2.3672 4.7344zm26.992-94.242c1.8945-3.3164 4.2617-6.1562 6.1562-8.5234-2.3672 2.8438-4.2617 5.6836-6.1562 8.5234zm24.152-0.47266c-0.47266 0-0.94531-0.47266-1.4219-0.47266 0.94531-0.47266 1.8945-0.94531 2.8398-0.94531-0.46875 0.47266-0.94141 0.94531-1.418 1.418zm240.58-74.824h-0.94531-0.47266c-0.47266 0-0.94531 0.47266-0.94531 0.94531-0.94531 0.94531-1.8945 2.3672-1.8945 3.7891 0 0.94531 0 1.8945 0.47266 2.8398v0.47266 0.47266l0.47266 0.47266v0.47266c0.47266 0.47266 0.47266 0.47266 0.94531 0.94531 0.94531 0.94531 2.3672 0.94531 3.7891 0 0.47266 0 0.47266-0.47266 0.94531-0.94531 2.3672-1.4219 1.4219-5.6836 0.47266-7.5781-0.47266-0.47266-0.94531-0.94531-1.4219-1.4219 5.6836 2.3672 8.0508 6.1562 8.5234 12.785-9.9453 0-19.891-5.6836-22.73-15.629 3.7891 0.47266 8.0508 0.94531 11.84 1.8945 0.47266 0.48437 0.47266 0.48437 0.94922 0.48437zm56.355 6.1562c-0.47266 6.1562-7.1055 8.9961-13.262 9.9453 0.47266-0.47266 1.4219-0.94531 1.8945-1.4219 0.94531-0.47266 1.4219-2.3672 1.8945-3.3164 0.47266-1.4219 0.47266-3.7891-0.94531-4.7344-0.47266-0.47266-0.94531-0.47266-1.4219-0.94531 3.7891 0 7.5781 0.47266 11.84 0.47266zm-15.629 0.47266c-0.47266 0-0.47266 0.47266-0.94531 0.94531v0.47266c-0.47266 0.94531-0.94531 1.8945-0.94531 2.8398v0.47266 0.94531c0 1.8945 0.94531 4.7344 2.8398 5.2109-2.3672 0.47266-5.2109 0.47266-6.6289 0.47266-1.4219 0-2.8398-0.47266-4.2617-0.94531 1.8906-6.625 5.6797-9.4648 9.9414-10.414zm-28.414 113.66c0.47266-1.4219 1.4219-2.3672 1.8945-3.7891 0.47266-0.47266 0.47266-0.94531 0.94531-0.94531-0.94531 1.418-1.8945 2.8398-2.8398 4.7344zm18.469-77.668c-2.8398 0.94531-5.6836 1.4219-8.0508 0.47266-0.94531-0.94531-1.8945-1.4219-2.3672-2.3672-0.47266-0.47266-0.94531-1.4219-1.4219-1.4219-0.47266 0.47266-0.94531 0.94531-1.4219 0.94531-0.94531 0.47266-2.3672 1.4219-3.3164 1.4219-2.8398 0-5.6836-1.8945-7.1055-4.2617 0-0.47266 0.47266-0.47266 0.94531-0.47266 0.47266 0.47266 0.94531 0.94531 1.4219 0.94531 1.4219 0.94531 2.8398 0.94531 4.2617 0.47266 0.47266 0 0.94531-0.47266 1.4219-0.47266 0.94531-0.47266 1.8945-1.4219 3.3164-1.4219 0.47266-0.47266 0.94531-0.94531 0.94531-1.8945-3.3164-1.4219-4.7344-6.1562-6.6289-8.5234-0.94531-1.4219 0.47266-2.8398 1.4219-2.8398 2.3672-0.47266 4.7344 0 6.6289 0.47266s4.7344 0.47266 6.6289 1.4219c0.94531 0.47266 1.4219 1.4219 0.94531 2.3672 0 0 0 0.47266-0.47266 0.94531-1.4219 1.8945-2.8398 3.3164-4.2617 4.7344-0.94531 0.94531-1.4219 1.4219-2.3672 1.8945v0.47266 0.94531c0.47266 0.94531 0.94531 1.8945 1.4219 2.3672 0.94531 0.94531 1.8945 1.8945 2.8398 2.3672 1.4219 0.47266 2.8398 0 4.2617 0.47266 0.47266 0 0.94531 0 1.4219-0.47266 0.003906 0.48438 0.003906 0.95703-0.46875 1.4297z"/>
</svg>
