<?xml version="1.0" encoding="UTF-8"?>
<svg width="752pt" height="752pt" version="1.1" viewBox="0 0 752 752" xmlns="http://www.w3.org/2000/svg">
 <path d="m526.81 525.75-6.2461-24.621-59.66-14.766-40.223-22.406 8.582-2.5938-2.082-16.855-28.391-0.73438 30.297-16.168-0.24609-43.426-47.977 34.34 48.48-60.852-8.332-63.129-70.711 93.176 62.375-129.54-36.367-93.434-83.344 231.7-5.8906-6.9961-30.488 19.887-21.789 28.859 1.2891 6.293-10.766 16.547-0.125 8.8281 6.8203 6.3242 11.688 3.9844-4.0117-7.1172 1.2891-6.5977 13.863-11.082 37.656-14.789 24.566 19.766 30.234 15.836 22.973 7.7188-2.5508 12.383-10.574 11.223-20.988 1.9141-6.8164 4.543-0.76562 6.8203 6.0352-5.3828 13.855-0.92188 8.5664 4.3555 3.6484 4.9219 0.3125-5.75-2.1328-4.1719 31.371-14.035 58.109 7.957 37.684 79.496 23.121-13.941-30.195-37.527 36.609 27.523 9.7969-25.496-37.871-20.211zm-284.55-82.078 9.3711-13.715 4.168 5.7578z"/>
</svg>
