<?xml version="1.0" encoding="UTF-8"?>
<svg width="752pt" height="752pt" version="1.1" viewBox="0 0 752 752" xmlns="http://www.w3.org/2000/svg">
 <g>
  <path d="m502.68 257.71c0.30469-0.75781 0.78516-1.3438 1.4023-1.7852 4.2891-3.0938 14.965 0.77734 14.965 0.77734-3.0312-11.109-15.762-13.133-15.762-13.133-2.8281-9.8984 3.8398-7.8789 3.8398-7.8789-6.0625-3.4336-17.176-16.77-28.695 8.6914-9.7812 21.617-36.523 33.109-44.391 36.086 4.7461 10.992 2.7695 29.348 1.25 43.449-0.039063 0.33984-0.074219 0.69531-0.11328 1.0469 16.207-3.7852 24.062-34.117 24.062-34.117-2.4258 10.305 3.6367 20.004 3.6367 20.004 2.4258-20.809 23.438-31.316 23.438-31.316 13.336 11.312 27.879 5.8594 27.879 5.8594-12.121-7.4766-13.938-21.621-11.512-27.684z"/>
  <path d="m452.57 455.31c-14.344 3.8398-17.371 8.4883-34.949 7.6758-17.578-0.80469-20.402-1.6133-20.402-1.6133s28.078-31.516 24.039-42.832c-3.4766-9.7422-31.793-29.816-39.613-35.219-2.3047 2.1992-4.9727 4.6758-8.0781 7.5664l-3.1914 2.9609c-13.363 12.438-17.965 23.992-18.949 37.125 5.3164 0.14844 17.906 0.42969 21.543-0.070312 4.6445-0.64453 0.19922 12.285-3.4375 20.574-3.6367 8.2812-21.824 24.246-15.559 31.316 6.2617 7.0664 21.215 11.312 40.008 8.6914 18.793-2.6289 37.176 3.4336 46.27 6.8672l9.0938 3.4336s0.73438-11.828-4.8594-18.168c-0.25391-0.28906-0.51953-0.55859-0.80078-0.82422-6.4648-6.0625 16.164-0.80859 18.18 4.8477 2.0234 5.6562 1.0117-17.77-6.4648-21.305 0 0 9.6914-5.9688 17.172-1.1172 7.4805 4.8398-5.6562-13.75-20-9.9102z"/>
  <path d="m270.59 282.66c0.625-5.5312 0.38281-9.5586-0.1875-12.488 4.9219-5.7266 14.699-12.73 30.508-6.2422 2.1914 0.89844 3.4961 2.1641 4.2227 4.0977 4.2734 11.348-9.4102 38.863-20.402 60.977-7.6133 15.32-14.809 29.793-17.793 41.219-5.7266 21.918 2.0938 36.598 11.328 45-0.4375-5.7734-0.51562-10.758-0.027344-14.668 0.28516-2.2812 1.293-4.5 2.8125-6.6484-1.7383-5.0586-2.2344-11.594-0.039063-20.004 2.6055-9.9727 9.4766-23.793 16.75-38.422 14.141-28.438 27.492-55.305 20.988-72.582-2.1484-5.7109-6.4062-10.008-12.312-12.426-23.367-9.582-39.766 0.97266-48.219 11.602-23.219 1.9219-25.258 45.031-25.258 45.031 1.6719-4.7266 4.1719-8.1484 6.0391-10.266 0.37891-0.60156 0.75391-1.2031 1.1602-1.7891 0.62891-1 1.3438-1.7852 1.9609-2.6094 0.62891-0.78516 1.2656-1.3125 1.7695-1.8438 0.25-0.29297 0.50781-0.33984 0.71875-0.48828 0.20703-0.11719 0.39453-0.21875 0.54297-0.30469 0.29297-0.16016 0.46484-0.26172 0.46484-0.26172s-0.17188 0.16406-0.46484 0.45312c-0.15234 0.14062-0.31641 0.3125-0.52734 0.51172-0.20312 0.22266-0.42969 0.33984-0.66797 0.72266-0.46484 0.71094-1.0195 1.3984-1.5742 2.3477-0.53125 1.0039-1.1367 1.918-1.6719 3.0742-0.49219 0.97656-0.96094 1.9766-1.4062 2.9453-5.6406 17.141 6.1836 28.211 6.1836 28.211s5.6602-0.70703 9.2969-19.801c3.6289-19.082 14.039-9.5859 15.805-25.348z"/>
  <path d="m475.05 364.19s1.6641-13.641 11.664-14.246c0 0-15.453-4.0898-21.969 3.1836-6.5156 7.2734-7.5781 11.973-12.426 10.152-4.8477-1.8203-16.973-17.43-20.004-23.188s9.3438-52.277-4.1953-64c-13.539-11.715-35.965-23.543-35.859-33.543 0.097656-9.9961 3.1289-6.668 3.1289-6.668s6.2656 14.344 13.238 14.344c6.9727 0 13.031-15.656 10.91-23.234-2.1211-7.5781-8.3867-2.5273-8.3867-2.5273s-17.375-1.6211-16.262-9.6992 5.0547-16.875 11.414-18.285c6.3711-1.4141 15.16 7.4766 15.16 7.4766l4.8477-8.2812v-21.406h-31.727s-27.277-9.1914-46.07 3.8359c-18.785 13.031-31.516-2.4258-31.516-2.4258s3.3359 14.246 19.695 14.246c0 0-15.156 16.969-15.457 30.305-0.30469 13.336-19.09 12.73-19.09 12.73s13.555 7.1367 25.625 1.7188c1.1445-0.625 2.3789-1.3438 3.5977-2.1602 1.9844-1.3555 3.8359-2.9023 5.1445-4.1875 1.1992-1.3906 2-2.3203 2-2.3203s-0.55859 1.1133-1.3906 2.7812c-0.98047 1.6016-2.4609 3.6523-4.1562 5.5547-1.3359 1.4258-2.6836 2.7344-3.9297 3.8516-2.3359 7.6719-5.6602 23.699-2.9453 47.496 0 0 2.6094-4.8984 8.1836-9.1797 0.30469-0.33594 0.57422-0.67578 0.91016-1.0039 1.2969-1.3086 2.6562-2.6992 4.2148-3.8711 1.4648-1.2734 3.0195-2.4023 4.5781-3.3242 1.5117-0.98438 2.8984-1.9023 4.2227-2.4688 2.5508-1.25 4.2578-2.082 4.2578-2.082s-1.5391 1.0898-3.8555 2.7188c-1.1875 0.75-2.3945 1.8672-3.6875 3.0469-1.3398 1.1133-2.6484 2.4297-3.832 3.8516-1.2852 1.3242-2.3359 2.8359-3.3281 4.2188-0.39844 0.53516-0.72266 1.0742-1.0469 1.6094-3.4141 9.7461-9.6836 30.746-8.793 51.629 1.2109 28.492 0.60547 28.793-9.0938 37.578-9.6992 8.7891-36.668 20.309-38.184 32.43-1.5156 12.125 2.7266 36.062 6.0625 60.613 3.3359 24.547-17.879 26.668-17.879 26.668s-8.4883-5.1523-3.0312-15.457c0 0-15.172 11.367-1.8281 33.188 13.344 21.816 13.242 40.359 13.242 40.359s5.168-10.344 5.793-15.102c-0.12891 2.8359 0.10547 11.32 6.7344 18.941 0 0 5.8633-0.20312 8.0859-8.0898 2.2227-7.875 3.1289 25.406 29.953 32.84 0 0 8.0273-1.668 10.453 6.0625 0 0 6.668-16.973 1.5156-24.547 0 0 15.906 16.52 15.148 24.547 0 0 4.3945-12.883-1.668-25.004 0 0 11.516-3.3359 17.277 6.2148 0 0-6.3633-17.43-13.941-22.125-7.5781-4.6992-33.941-2.1211-33.941-2.1211s-17.578-18.641-17.578-27.879 47.121-30.609 44.695-56.469c-2.4219-25.863-1.4102-42.434 18.996-61.422 20.227-18.82 24.125-21.914 23.613-30.516-0.003906-0.082031-0.015625-0.16016-0.015625-0.24219-0.60547-8.7891 39.246 14.852 48.793 21.824 9.543 6.9727 25.309 16.211 26.824 22.727 0 0 4.0898-7.2734 1.5156-10.305 0 0 13.18 5.7578 15.457 11.668 2.2734 5.9102 0-1.0547 0-1.0547s-6.0625-22.582-11.215-24.551c-5.1523-1.9688 15.305-6.9727 21.824-1.9688-0.015625 0-16.84-17.277-20.477-15.457zm-90.84-171.02c-2.5195 0-4.5625-2.043-4.5625-4.5625s2.043-4.5625 4.5625-4.5625c2.5195 0 4.5625 2.043 4.5625 4.5625-0.003906 2.5195-2.043 4.5625-4.5625 4.5625z"/>
 </g>
</svg>
