<?xml version="1.0" encoding="UTF-8"?>
<svg width="752pt" height="752pt" version="1.1" viewBox="0 0 752 752" xmlns="http://www.w3.org/2000/svg">
 <g fill-rule="evenodd">
  <path d="m528.65 530.86c-18.312 17.363-39.469 27.625-63.465 30.781-7.5742 2.5273-15.473 3.793-23.676 3.793-9.1562 0-17.207-1.582-24.152-4.7383-6.9453-1.5781-10.578-2.5273-10.895-2.8398-4.418-1.5781-7.2617-3.6289-8.5234-6.1602 1.8945-0.94531 3.0039-4.8945 3.3164-11.836 0.32031-3.4727 2.5273-5.3711 6.6289-5.6836 2.2148-0.32031 6.3164-1.582 12.316-3.793 5.9961-2.2109 10.258-3.1562 12.785-2.8398 3.7852 1.8945 9.625 4.1055 17.523 6.6328 1.2578-0.32031 1.7344-1.1094 1.4219-2.3711-0.32031-2.5234-0.47656-3.6289-0.47656-3.3125 7.2617-3.4727 15.152-5.2148 23.676-5.2148 6 0 11.84 0.94922 17.523 2.8398-2.2109 0.32031-8.3672 1.4219-18.469 3.3164-6.9453 1.2656-12.629 3.4727-17.051 6.6289-1.8945 3.793 3 5.6836 14.684 5.6836 16.418 0 34.254-4.418 53.512-13.258 1.2656 0 2.3672 0.78906 3.3164 2.3672z"/>
  <path d="m491.24 415.31c-6.9453 2.5273-16.891 6.9453-29.836 13.262-8.5234 0.63281-17.68-1.1094-27.469-5.207-3.4727-1.582-11.523-5.6836-24.152-12.316-11.367 0.94922-21.625 4.8945-30.781 11.84-0.32031 3.1562 0.63281 5.0508 2.8398 5.6836 1.2656 0.3125 3.9414 0.3125 8.0508 0 3.4727-0.32031 5.8398 0 7.1055 0.94531 6.9492 0.94922 19.734 10.422 38.359 28.414 3.4727-1.8906 7.2617-2.8398 11.367-2.8398 6.3164 0 11.367 1.7383 15.16 5.2148 1.2578 0.625 2.3672 2.0469 3.3125 4.2617-7.2617-1.582-14.051-1.7383-20.359-0.47656-8.5234 1.5781-12.793 5.8398-12.793 12.785 0 3.4727 3.0039 7.418 9 11.84 1.5781 0.625 3.9492 1.4219 7.1055 2.3672-2.2109 0.94531-4.2617 1.4219-6.1523 1.4219-2.5273 0-6.7891-1.9727-12.793-5.918-5.9961-3.9492-10.57-5.4492-13.73-4.5039-12 3.793-23.676 5.6836-35.043 5.6836-13.262 0-24.785-2.2109-34.574-6.6289-1.2656-0.32031-2.3672-0.47656-3.3164-0.47656-3.4688 0-5.6836 2.0547-6.6289 6.1602 2.2109 8.8359 3.6289 13.891 4.2617 15.152 2.2109 6 5.207 10.102 9 12.316 2.8398 2.5234 10.734 5.0508 23.676 7.5742 10.422 2.2109 16.262 6 17.523 11.367 0.94531 4.1055 1.8906 8.0547 2.8398 11.84-2.5273 7.8906-9.7891 12.312-21.785 13.262-7.8906-0.32031-15.551-3.6289-22.969-9.9453-7.4219-6.3164-12.863-13.262-16.34-20.84 1.2656-6.6289 1.8906-10.258 1.8906-10.891-7.5742-3.4727-12.625-11.523-15.152-24.152 0-1.5781 0.86719-4.1836 2.6055-7.8125 1.7344-3.6289 2.6016-6.2383 2.6016-7.8125 0-2.8398-1.7344-5.0508-5.207-6.6289l-0.47656 0.94531c-0.3125-0.63281-1.4219-0.47656-3.3125 0.47656-1.8945 4.418-4.6602 10.812-8.2891 19.18-3.6289 8.3633-9.5469 11.758-17.758 10.18-4.418 3.7852-10.734 9.9453-18.945 18.469 0.63281 1.8945 3.082 3.9414 7.3438 6.1602 4.2617 2.2109 6.5508 4.7305 6.8633 7.5742 2.2148 1.8945 5.2148 5.0508 9 9.4766-1.2656 0.63281-2.6836 0.94531-4.2617 0.94531-3.1562 0-7.2617-1.4219-12.312-4.2617-12.949-11.055-18.789-20.523-17.523-28.414 3.7852-5.6836 12.629-11.211 26.52-16.574 0.32031-0.94922 1.4219-4.4258 3.3164-10.422 1.2656-4.418 3.7852-7.1055 7.5781-8.0508 3.1562-2.8398 4.5742-5.3711 4.2617-7.5781-3.4727-2.5273-6.3164-3.7852-8.5234-3.7852-0.94922 0-1.7383 0.15625-2.3711 0.46875-2.2109 1.2656-4.2617 4.2617-6.1523 9-1.8945 4.7383-4.2617 7.5781-7.1055 8.5234-5.0508-0.32031-16.734 3.6289-35.051 11.84-2.2109 2.5234-3 6.3086-2.3672 11.367 0.94531 6.6289 1.2656 10.57 0.94531 11.836-4.7305-1.5781-8.3633-6.3164-10.891-14.207 0.63281-1.8906 2.918-4.8945 6.8672-8.9961 3.9414-4.1055 5.7617-7.7344 5.4414-10.895 1.2656-1.2656 4.8945-2.8398 10.895-4.7305 5.9961-1.8945 9.625-4.7383 10.891-8.5234 11.68-4.1055 19.102-9.6328 22.258-16.578-1.8906-1.5781-4.2617-2.3672-7.1055-2.3672 1.8945 0-3.7852 1.1016-17.051 3.3164-8.207 3.7852-20.68 9.7812-37.41 17.996-3.1602 2.5234-5.8438 10.578-8.0547 24.152h-1.8906c-0.63281-0.94531-2.3711-3.6289-5.2148-8.0508-1.8906-3.1602-2.6797-6.3164-2.3672-9.4766 1.8945-0.63281 3.7852-3.9453 5.6836-9.9453 1.8945-5.9961 5.0508-8.9961 9.4688-8.9961 8.5234-4.4258 21.785-9.6328 39.781-15.629 2.2109-2.5273 3.0039-4.2617 2.3711-5.2148-16.418-13.258-24.941-34.098-25.574-62.512 0.3125-2.5234-0.32031-6.1602-1.8945-10.891-1.5781-4.7383-2.3672-8.0547-2.3672-9.9453 0-2.8398 0.94531-5.5273 2.8398-8.0547 0-3.4688-1.1875-8.7578-3.5508-15.863-2.3711-7.1055-3.5508-12.234-3.5508-15.395 0-5.3633 2.5234-9.9453 7.5742-13.73 4.7383-6.6289 11.055-9.9453 18.945-9.9453 6.9453 0 11.84 3.3164 14.684 9.9453 3.4727 8.5234 4.5742 14.684 3.3125 18.469-1.2578 2.2109-1.8906 4.418-1.8906 6.6289 0 2.8398 1.8906 7.4219 5.6836 13.738 3.7852 6.3164 5.8398 11.047 6.1523 14.207-1.5781 7.8906 2.0547 14.363 10.895 19.414 11.047 6 17.363 10.734 18.941 14.207 0 0.63281-1.7344 1.8945-5.207 3.793l-14.207 2.8398c-5.3633 1.8906-8.8359 5.207-10.422 9.9453-0.3125 1.8906-1.4219 4.418-3.3125 7.5742-9.1562-1.5781-16.105 1.1094-20.84 8.0547 0 1.5781 0.16406 2.3672 0.47656 2.3672 4.7383-1.2656 13.895-3.1602 27.469-5.6836 0.94531-0.32031 3.9414-4.2617 8.9961-11.84 3.793-5.3633 7.7344-8.0508 11.84-8.0508h8.0508c3.1602 0.3125 5.2148 1.4219 6.1602 3.3164-2.8398 1.8906-6.9453 5.5195-12.312 10.891-0.94922 4.1055-1.7383 8.207-2.3711 12.312-1.5781 4.7383-4.1016 7.5781-7.5742 8.5234-0.94922 0.32031-3.6289 1.4219-8.0547 3.3164-3.1562 1.2656-4.8906 3.4727-5.207 6.6289 1.2656 1.2656 2.6836 1.8945 4.2617 1.8945 1.5781 0 4.3398-1.3438 8.2891-4.0273 3.9453-2.6836 6.0742-4.0234 6.3945-4.0234 3.1562 0 7.5742-1.2656 13.258-3.793 0-0.94531-0.86719-3-2.6016-6.1523-1.7383-3.1602-2.2891-5.8438-1.6602-8.0547 3.1602-3.7852 7.5781-6.6289 13.262-8.5234l14.207-4.7305 4.2617 1.4219c0.94531-2.5273 4.418-6.1602 10.422-10.895 5.0508-4.1055 7.7344-8.207 8.0508-12.312 4.7383-5.0508 9.9453-7.5781 15.629-7.5781 1.8945 0 3.7852 0.32031 5.6836 0.94922l0.94531-0.94922 0.94922 0.94922c3.7852 0 9.3125-0.79297 16.574-2.3711s12.785-2.3672 16.574-2.3672c6.3164 0 11.527 1.5781 15.633 4.7383l-2.3711 2.3672c-2.2109-0.32031-4.418-0.47656-6.6289-0.47656-5.6836 0-12.316 1.7383-19.891 5.2148-10.102 4.7305-16.418 7.418-18.945 8.0508-3.7852 2.5234-8.5234 4.1055-14.207 4.7383-0.94531 0.625-4.418 3.9453-10.422 9.9453-4.1016 4.1016-8.207 6.1523-12.312 6.1523-3.4727 4.7383-8.0508 12.156-13.73 22.262l0.94531 3.7852c0.94531 2.5234-3 6.1602-11.84 10.891-4.7305 2.5273-7.5742 5.6836-8.5234 9.4766 1.2656 1.2578 2.5273 1.8906 3.793 1.8906 1.5781 0 3.7852-1.3438 6.6289-4.0234 2.8398-2.6836 4.8945-4.1836 6.1602-4.5039 3.4727-0.94531 7.8906-3.4727 13.258-7.5742-2.2109-3.1602-3.3125-6.1602-3.3125-9 0-2.2109 0.78906-4.2617 2.3672-6.1602 1.5781-1.8906 4.418-4.8945 8.5234-8.9961 4.1055-4.1055 8.0508-6 11.84-5.6836 6.3164-4.7383 12.629-9.4766 18.941-14.207 8.2109-5.3711 15.473-7.5781 21.785-6.6328 1.5781 5.6836 4.2617 8.5234 8.0508 8.5234 4.4258 0 6.6328-1.4219 6.6328-4.2617 0-0.63281-0.24219-1.6562-0.71094-3.0781-0.47656-1.4219-0.71094-2.4492-0.71094-3.0781 0-1.2656 1.1016-2.0547 3.3125-2.3711 32.84 1.2656 54.465 9.3125 64.887 24.152z"/>
  <path d="m370.48 350.43c-1.5781 1.2656-5.0508 1.8125-10.422 1.6562-5.3633-0.15625-8.8359 0.55469-10.422 2.1328-0.3125 0.32031-3.9453 2.6836-10.891 7.1055-5.0508 3.1602-7.5781 5.8398-7.5781 8.0508 0 1.8945 0.94922 3.9492 2.8398 6.1602-0.3125 6-3.3125 10.734-8.9961 14.207 0.3125-1.2656 0.46875-2.3672 0.46875-3.3125 0-2.2148-0.86719-5.293-2.6016-9.2344-1.7383-3.9492-2.6055-6.8672-2.6055-8.7656 0-2.2109 0.94531-4.2617 2.8398-6.1602 2.5273-0.94531 8.3672-4.2617 17.523-9.9453 7.2617-4.7305 13.102-7.1055 17.52-7.1055 4.4258 0 8.5234 1.7383 12.316 5.2148z"/>
  <path d="m406.46 358.95c-0.625 1.2656-2.5234 2.2891-5.6836 3.0781-3.1562 0.78906-4.8906 1.3438-5.207 1.6562l-0.94531-0.94531c-12.316 1.8945-26.68 8.8438-43.098 20.84-1.2656 5.0508-2.2109 8.5234-2.8398 10.414-1.8945 3.4727-4.5742 5.5273-8.0508 6.1602-2.2109 0-3.3164-0.47656-3.3164-1.4219 0-2.5273 1.7383-6.0781 5.207-10.656 3.4727-4.582 5.2148-7.9727 5.2148-10.18 0-1.582-0.47656-3.1602-1.4219-4.7383l3.3125-3.3164c3.1602-0.63281 10.578-3.3164 22.262-8.0508 9.4688-4.1055 16.574-6.1602 21.312-6.1602 4.418 0 8.8359 1.1094 13.258 3.3164z"/>
  <path d="m514.45 480.19c-0.63281 0.625-1.4219 0.94531-2.3711 0.94531-1.8906 0-4.7305-0.78906-8.5234-2.3672-7.8906-8.8438-11.68-15-11.367-18.469 1.2656-2.2148 3-3.3164 5.2148-3.3164 4.418 0 7.5742 2.2109 9.4688 6.6289z"/>
  <path d="m545.7 464.09c0 6.9453-1.582 13.102-4.7383 18.469-3.7852 3.4727-7.8906 5.9961-12.312 7.5781 0.625-12.316-7.7344-24.473-25.105-36.469-1.2656-0.3125-4.2617-1.4219-8.9961-3.3125l-0.94922 0.94531c-0.3125-0.32031-1.7344-0.63281-4.2617-0.94531l-0.46875 0.94531-0.94922-0.94531c-0.63281 0.625-1.5781 0.94531-2.8398 0.94531-1.2656 0-2.2109-0.32031-2.8398-0.94531-2.8398-1.8945-5.3633-6.3164-7.5742-13.262 0.94531-6 3.9414-10.422 8.9961-13.262 4.418-1.5781 9-2.3672 13.738-2.3672 16.418 0 30.938 7.8945 43.566 23.676 3.1562 5.6836 4.7383 12 4.7383 18.945z"/>
  <path d="m463.77 226.82c0.94922 3.1562-0.63281 7.1055-4.7305 11.836-4.1055 4.7383-6.1602 8.2109-6.1602 10.422 0.3125 12-3.3164 19.734-10.891 23.207-5.0547 1.2656-13.418 4.418-25.105 9.4688-10.422 4.7383-18.781 7.1055-25.098 7.1055-5.0508 0-9.9453-1.1016-14.684-3.3164-5.3633-0.94531-12.156 0.16406-20.367 3.3164-9.1523 3.7852-15.465 5.6836-18.941 5.6836-4.418 0-8.5234-1.2656-12.316-3.7852-5.3633-1.2656-12.785 0.78906-22.258 6.1523-9.4688 5.3711-16.73 7.4219-21.785 6.1602-2.8398-5.6836-4.2617-8.6797-4.2617-9-2.2109-3.4688-4.5742-5.6836-7.1055-6.6289l-6.6289-2.8398c9.7891-8.8359 22.258-13.262 37.414-13.262 4.1055 0 8.207 0.32031 12.312 0.94922 1.5781 0.63281 3.7852 2.918 6.6289 6.8633 2.8398 3.9492 5.2148 5.9219 7.1055 5.9219 1.582 0 3.1602-0.32031 4.7383-0.94922 3.1602-2.8398 4.7383-4.5742 4.7383-5.207-3.793-0.94531-8.2109-3.4727-13.262-7.5781 5.6836-3.1562 16.574-3.6289 32.676-1.4219 15.152 2.2148 25.891 0.47656 32.203-5.207 2.5273-0.94531 5.0547-1.4219 7.5781-1.4219 3.1602 0 7.8945 1.2656 14.207 3.7852 6.3164 2.5273 11.055 3.793 14.207 3.793l1.4219-1.8945c-4.1055-3.7852-6.1602-6.7852-6.1602-9 0-1.2578 0.47656-2.3672 1.4219-3.3125 4.1055-8.5234 12.949-14.051 26.523-16.578 1.5781-1.2578 2.3672-2.5234 2.3672-3.7852 0-0.94531-0.3125-1.7344-0.94531-2.3672l-3.3164-2.3711-0.46875 0.94922-0.94922-0.94922-6.1523 5.2148c-1.8945-0.94922-3.793-4.1055-5.6875-9.4766 0-8.207 3.0039-14.047 9-17.52 12 0.94531 19.578 6.6289 22.73 17.051z"/>
  <path d="m380.42 210.72c0 1.2656-0.15625 2.6836-0.47656 4.2617-5.3633 6.9453-15.629 11.523-30.781 13.73-17.367 2.5273-28.258 5.3711-32.676 8.5234 2.2109-6.6289 3.3125-12.469 3.3125-17.52 0-4.1055-0.78906-7.5781-2.3672-10.422 6.3164-10.102 13.262-15.629 20.836-16.574h12.785c4.7383 0.3125 8.5234 1.5781 11.367 3.7852-0.3125 0.3125-1.5781 1.4219-3.7852 3.3164-2.2109 1.8906-3.1562 3.6289-2.8398 5.207 1.5781 1.2656 3.7852 1.8945 6.6289 1.8945 1.2656 0 3.3164-0.24219 6.1602-0.71094 2.8398-0.47656 4.8945-0.71094 6.1602-0.71094 3.7852 0 5.6836 1.7344 5.6836 5.207z"/>
  <path d="m437.73 199.35c-0.32031 1.2656-2.1328 2.3672-5.4492 3.3164-3.3164 0.94531-4.9727 2.0547-4.9727 3.3125 0 0.94922 0.46875 2.2109 1.4219 3.793-1.2656 0.94531-3 1.1016-5.2148 0.46875-3.1562-0.63281-5.0508-0.94531-5.6836-0.94531-9.7812-1.5781-24.152-5.5273-43.094-11.84 13.574-7.2617 26.043-10.891 37.41-10.891 3.4727 0 6.7891 0.3125 9.9453 0.94531 7.5781 3.793 12.793 7.7344 15.633 11.84z"/>
 </g>
</svg>
